<svg width="69" height="69" viewBox="0 0 69 69" fill="none" xmlns="http://www.w3.org/2000/svg">
<path fill-rule="evenodd" clip-rule="evenodd" d="M27.9313 8.59991H40.8316C42.0185 8.59991 42.9817 7.63669 42.9817 6.44986C42.9817 5.26303 42.0185 4.2998 40.8316 4.2998H27.9313C26.7445 4.2998 25.7812 5.26303 25.7812 6.44986C25.7812 7.63669 26.7445 8.59991 27.9313 8.59991Z" fill="#080917"/>
<path fill-rule="evenodd" clip-rule="evenodd" d="M32.2277 37.9553L23.1416 48.9292C22.3848 49.843 22.5138 51.1997 23.4275 51.9565C24.3413 52.7133 25.698 52.5843 26.4548 51.6705L36.0419 40.0925C36.4117 39.6453 36.5708 39.0906 36.5278 38.5552L36.5321 23.651C36.5321 22.4642 35.5689 21.501 34.3821 21.501C33.1952 21.501 32.232 22.4642 32.232 23.651L32.2277 37.9553Z" fill="#080917"/>
<path fill-rule="evenodd" clip-rule="evenodd" d="M52.0434 19.7908L55.2728 16.5614C56.1113 15.7229 56.1113 14.3598 55.2728 13.5212C54.4343 12.6827 53.0711 12.6827 52.2326 13.5212L48.6506 17.1032C44.5677 14.3899 39.6677 12.8096 34.4022 12.8096C20.1624 12.8096 8.60156 24.3704 8.60156 38.6102C8.60156 52.85 20.1624 64.4109 34.4022 64.4109C48.642 64.4109 60.2029 52.85 60.2029 38.6102C60.2029 31.1904 57.0638 24.4994 52.0434 19.7908ZM34.4022 17.1097C46.2684 17.1097 55.9028 26.7441 55.9028 38.6102C55.9028 50.4764 46.2684 60.1108 34.4022 60.1108C22.5361 60.1108 12.9017 50.4764 12.9017 38.6102C12.9017 26.7441 22.5361 17.1097 34.4022 17.1097Z" fill="#080917"/>
</svg>
