<svg width="24" height="25" viewBox="0 0 24 25" fill="none" xmlns="http://www.w3.org/2000/svg">
<path d="M3.46644 2.93604H20.5424C21.1304 2.93604 21.5984 3.40755 21.5984 3.99996V21.2163C21.5984 21.7966 21.1304 22.2802 20.5424 22.2802H15.6464V14.7843H18.1424L18.5144 11.8706H15.6464V10.0087C15.6464 9.16243 15.8864 8.58211 17.0864 8.58211H18.6224V5.97065C18.3584 5.93438 17.4464 5.86184 16.3904 5.86184C14.1704 5.86184 12.6584 7.21593 12.6584 9.71858V11.8706H10.1504V14.7843H12.6584V22.2802H3.46644C3.18525 22.2802 2.91541 22.1685 2.71546 21.9693C2.51551 21.7701 2.4016 21.4995 2.39844 21.2163V3.99996C2.39844 3.40755 2.87844 2.93604 3.46644 2.93604Z" fill="#333333"/>
</svg>
