<svg width="34" height="31" viewBox="0 0 34 31" fill="none" xmlns="http://www.w3.org/2000/svg">
<path d="M12.72 0.959995L7.44 23.16L6.48 18C8.4 18 9.96 18.6 11.16 19.8C12.36 20.92 12.96 22.44 12.96 24.36C12.96 26.28 12.36 27.84 11.16 29.04C9.96 30.24 8.48 30.84 6.72 30.84C4.8 30.84 3.24 30.24 2.04 29.04C0.92 27.76 0.36 26.2 0.36 24.36C0.36 23.64 0.4 23 0.48 22.44C0.56 21.88 0.72 21.2 0.96 20.4C1.2 19.6 1.52 18.64 1.92 17.52L6.96 0.959995H12.72ZM33.12 0.959995L27.84 23.16L26.88 18C28.8 18 30.36 18.6 31.56 19.8C32.76 20.92 33.36 22.44 33.36 24.36C33.36 26.28 32.76 27.84 31.56 29.04C30.36 30.24 28.88 30.84 27.12 30.84C25.2 30.84 23.64 30.24 22.44 29.04C21.32 27.76 20.76 26.2 20.76 24.36C20.76 23.64 20.8 23 20.88 22.44C20.96 21.88 21.12 21.2 21.36 20.4C21.6 19.6 21.92 18.64 22.32 17.52L27.36 0.959995H33.12Z" fill="white"/>
</svg>
