<svg width="184" height="54" viewBox="0 0 184 54" fill="none" xmlns="http://www.w3.org/2000/svg">
<g clip-path="url(#clip0_1507_1871)">
<path d="M35.5736 14.9931C35.5091 14.3177 35.3946 13.6481 35.2311 12.9897C34.3213 9.2958 32.4459 6.25862 29.6029 3.9362C27.4404 2.14656 24.8727 0.918539 22.1261 0.360368L21.8166 0.300287L21.6805 0.273355C21.2678 0.200844 20.8552 0.140763 20.4426 0.0931131L20.1125 0.0578934C20.0953 0.056855 20.0781 0.056855 20.0609 0.0578934C20.0562 0.056823 20.0512 0.056823 20.0465 0.0578934C20.0335 0.0600572 20.0203 0.0600572 20.0073 0.0578934C18.468 -0.0422162 16.9228 0.00356458 15.392 0.194629L15.3549 0.207059C15.1486 0.238135 14.9423 0.275427 14.7236 0.31479C12.3524 0.75655 10.0944 1.67398 8.08442 3.0122C5.50703 4.69646 3.44241 7.06219 2.11784 9.84895C1.35555 11.4467 0.856661 13.1581 0.640633 14.9164C0.607623 15.1692 0.607623 15.4302 0.570487 15.6851C0.520285 16.0683 0.496845 16.4546 0.50034 16.8411V17.2554C0.50034 17.2554 0.50034 17.705 0.547792 18.3245C0.547792 18.3617 0.558108 18.397 0.562234 18.4343C0.564296 18.4612 0.564296 18.4882 0.562234 18.5151C0.562234 18.6145 0.576676 18.7222 0.584929 18.8237C0.596797 18.8591 0.600329 18.8966 0.595244 18.9335V18.946C0.609686 19.1532 0.634444 19.3603 0.665391 19.5799C0.686022 19.7457 0.71078 19.9114 0.737601 20.0751C0.737601 20.0751 0.737601 20.0917 0.737601 20.0999C1.08895 22.3215 1.9757 24.4231 3.32064 26.2219C4.26969 27.5189 5.35902 28.6935 6.41535 29.8972C7.81049 31.4441 9.01128 33.1571 9.99076 34.9979C10.1991 35.3708 10.3105 35.7905 10.3147 36.2181C10.2982 39.6199 10.3147 43.0217 10.3002 46.4235C10.3002 46.6535 10.3642 46.7094 10.5891 46.7094C15.7098 46.7094 20.8318 46.7094 25.9553 46.7094C25.9883 46.7073 26.0213 46.7073 26.0543 46.7094C26.2379 46.7364 26.2606 46.6286 26.2421 46.4339C26.2132 46.1418 26.2132 45.8475 26.2421 45.5555C26.2771 45.2571 26.1822 45.2095 25.9305 45.2095C21.3119 45.2178 16.6925 45.2212 12.0725 45.2198C11.7877 45.2198 11.7609 45.1266 11.8001 44.7164C11.894 43.7041 11.894 42.6853 11.8001 41.673C11.7568 41.2276 11.7836 41.1323 12.0848 41.1323C16.152 41.1406 20.2184 41.1406 24.2842 41.1323C24.3502 41.1323 24.4183 41.1323 24.4905 41.1323C24.6225 41.1447 24.6617 41.0826 24.6596 40.9583C24.6596 40.6185 24.6596 40.2787 24.6596 39.939C24.6596 39.5992 24.6596 39.6075 24.3172 39.6075C20.2432 39.6075 16.1685 39.6075 12.0931 39.6075C11.8538 39.6075 11.7919 39.5412 11.7939 39.305C11.8063 38.1697 11.7939 37.0261 11.7939 35.9032C11.7939 35.696 11.8476 35.6132 12.0704 35.6194C13.102 35.6422 14.1335 35.6422 15.1651 35.6505C18.7694 35.6732 22.3737 35.6505 25.98 35.665C26.0828 35.6795 26.1874 35.6568 26.2751 35.601C26.3628 35.5452 26.4279 35.4599 26.4587 35.3604C27.1455 33.8115 28.0147 32.3508 29.0479 31.0097C30.0795 29.6362 31.2328 28.3621 32.2891 27.0092C33.391 25.6546 34.2611 24.1255 34.8639 22.4845C35.6912 20.0606 35.8356 17.5538 35.5736 14.9931ZM33.7168 21.2373C33.2825 22.7317 32.5836 24.1353 31.6537 25.3808C30.7541 26.6384 29.7246 27.7903 28.7508 28.9877C27.5036 30.4766 26.4268 32.1013 25.5406 33.8315C25.5168 33.8961 25.4717 33.9507 25.4128 33.9861C25.3539 34.0215 25.2847 34.0357 25.2167 34.0262C22.917 34.0262 20.6152 34.0262 18.3114 34.0262H16.4793C14.7545 34.0262 13.0298 34.0262 11.307 34.0262C11.2471 34.0308 11.1873 34.016 11.1365 33.9839C11.0856 33.9518 11.0463 33.9042 11.0244 33.848C10.1773 32.3039 9.17115 30.8534 8.02253 29.5202C6.94763 28.244 5.79228 27.0341 4.77103 25.7185C3.45761 24.0755 2.57521 22.1281 2.20449 20.0544C1.96742 18.6268 1.90714 17.1752 2.025 15.7327C2.17215 13.808 2.69513 11.9313 3.56409 10.2094C4.73351 7.87716 6.47344 5.88118 8.62084 4.40856C10.5674 3.06145 12.7759 2.14356 15.1011 1.71529C16.5294 1.4517 17.9848 1.3675 19.4337 1.46461C21.5939 1.58385 23.7074 2.1428 25.6458 3.1075C28.9943 4.78561 31.4597 7.3235 32.9658 10.773C33.6203 12.2857 34.0265 13.8948 34.1686 15.538C34.3595 17.4496 34.2064 19.3801 33.7168 21.2373Z" fill="#ADAFAA"/>
<path d="M183.502 35.524C181.111 35.524 178.72 35.524 176.328 35.524C176.083 35.524 176.007 35.5779 176.011 35.8368C176.025 37.0115 176.011 38.1862 176.011 39.3588C176.011 39.566 176.066 39.6115 176.262 39.6095C177.894 39.6095 179.528 39.6095 181.16 39.6095C181.367 39.6095 181.435 39.6592 181.424 39.8705C181.407 40.2094 181.407 40.5489 181.424 40.8877C181.437 41.0949 181.356 41.1446 181.158 41.1446C179.549 41.1446 177.942 41.1446 176.332 41.1446C176.015 41.1446 176.015 41.1446 176.015 41.4658C176.015 42.6259 176.015 43.784 176.015 44.9421C176.015 45.1783 176.087 45.226 176.308 45.226C178.6 45.226 180.892 45.226 183.186 45.226H183.502V46.7156C180.574 46.7156 177.647 46.7156 174.721 46.7156C174.554 46.7156 174.492 46.6741 174.492 46.4939C174.492 42.4153 174.492 38.336 174.492 34.2561C174.492 34.0158 174.618 34.0489 174.771 34.0489H183.502V35.524Z" fill="#ADAFAA"/>
<path d="M22.5782 49.0338C19.7999 49.0338 17.0208 49.0338 14.2411 49.0338C14.1668 49.0338 14.0925 49.0338 14.0183 49.0338C13.5272 49.0007 13.5376 49.0007 13.5169 49.4834C13.4666 50.2039 13.6257 50.9237 13.9749 51.5551C14.8208 53.0261 16.1289 53.7533 17.7856 53.9086C17.8557 53.9086 17.9671 53.8589 17.9692 54.0019H18.4148C18.5076 53.805 18.6871 53.919 18.8274 53.9004C20.9793 53.5979 22.9351 51.8804 22.8753 49.3156C22.8691 49.069 22.7969 49.0338 22.5782 49.0338ZM21.3073 50.627C21.0706 51.1636 20.6944 51.6263 20.218 51.9664C19.7417 52.3066 19.183 52.5116 18.6005 52.5599C18.0517 52.6368 17.4927 52.5831 16.9684 52.4032C16.4441 52.2232 15.9692 51.9221 15.5821 51.5241C15.3272 51.2641 15.1291 50.9536 15.0003 50.6125C14.9343 50.4447 14.9322 50.3597 15.1592 50.3618C16.1639 50.3618 17.1707 50.3618 18.1755 50.3618H21.1423C21.4146 50.3701 21.429 50.3846 21.3135 50.627H21.3073Z" fill="#ADAFAA"/>
<path d="M104.319 46.0171C103.522 45.3597 102.75 44.6767 102.002 43.9681C101.917 43.8874 101.839 43.8211 101.917 43.676C102.299 42.9882 102.654 42.2859 103.285 41.7825C103.35 41.733 103.401 41.6674 103.433 41.5922C103.464 41.517 103.476 41.4348 103.467 41.3536C103.456 40.9745 103.467 40.5933 103.467 40.2121C103.467 40.0816 103.558 39.9469 103.467 39.7977C103.258 39.9214 103.058 40.0599 102.868 40.2121C102.103 40.8679 101.441 41.6363 100.904 42.491C100.781 42.6754 100.712 42.6733 100.566 42.52C99.5983 41.5146 98.6818 40.4608 97.8199 39.3627C97.6982 39.2073 97.7312 39.1431 97.8901 39.0478C98.5072 38.6814 99.0792 38.2433 99.5942 37.7426C100.362 36.9781 100.345 36.1266 99.8377 35.2565C98.9381 33.7089 96.6955 33.4768 95.4741 34.782C95.2058 35.053 95.0059 35.3845 94.891 35.7489C94.7762 36.1132 94.7497 36.4999 94.8139 36.8766C94.9233 37.3361 95.1118 37.7729 95.371 38.1673C95.4638 38.3309 95.6681 38.4987 95.6144 38.6583C95.5608 38.8178 95.338 38.8986 95.1832 39.0063C94.0217 39.8226 93.1201 40.8129 92.9984 42.3211C92.8952 43.4937 93.149 44.5793 93.9474 45.4515C95.1317 46.7484 96.6666 47.0095 98.3171 46.7132C99.2827 46.5413 100.054 45.9819 100.712 45.263C100.857 45.1055 100.944 45.0724 101.125 45.2443C101.612 45.7146 102.122 46.1601 102.625 46.6096C102.715 46.719 102.845 46.7882 102.986 46.8023C103.71 46.8023 104.43 46.8023 105.161 46.8023L105.187 46.7464C104.899 46.504 104.61 46.2554 104.319 46.0171ZM97.5105 35.4719C97.7967 35.4676 98.074 35.5718 98.2871 35.7638C98.5001 35.9559 98.6332 36.2216 98.6596 36.5078C98.6666 36.6154 98.6455 36.7231 98.5985 36.82C98.5514 36.917 98.4801 37.0001 98.3914 37.061C98.0082 37.3466 97.5927 37.5859 97.1535 37.7736C96.8111 37.9456 96.8111 37.9456 96.6336 37.6017C96.5363 37.4115 96.4502 37.2157 96.3757 37.0154C96.3076 36.8374 96.2851 36.6451 96.3102 36.4562C96.3354 36.2672 96.4075 36.0876 96.5199 35.9339C96.6323 35.7802 96.7813 35.6574 96.9533 35.5767C97.1253 35.4959 97.3148 35.4599 97.5043 35.4719H97.5105ZM99.7201 44.1028C99.0723 44.8279 98.3089 45.3272 97.3 45.2982C96.6171 45.2796 95.961 45.1387 95.4184 44.6663C95.1266 44.4208 94.8931 44.1127 94.7353 43.7648C94.5775 43.4168 94.4992 43.0378 94.5064 42.6555C94.5135 42.2732 94.6058 41.8973 94.7765 41.5556C94.9471 41.2138 95.1919 40.9147 95.4927 40.6803C95.7712 40.4462 96.0601 40.2287 96.3592 40.0215C96.4892 39.9345 96.5552 39.9531 96.6398 40.0691C97.19 40.8246 97.7663 41.558 98.3687 42.2693C98.8082 42.781 99.2559 43.2907 99.7139 43.7879C99.8253 43.9205 99.8232 43.9827 99.7139 44.1028H99.7201Z" fill="#ADAFAA"/>
<path d="M126.29 37.2913C126.256 37.3725 126.248 37.462 126.266 37.5482C126.266 40.5053 126.266 43.4603 126.266 46.4132C126.266 46.6369 126.214 46.7198 125.981 46.7053C125.659 46.6867 125.337 46.6867 125.015 46.7053C124.809 46.7177 124.729 46.6639 124.735 46.436C124.751 45.7647 124.735 45.0956 124.735 44.4243C124.735 41.0557 124.735 37.687 124.735 34.3184C124.735 34.1112 124.776 33.9931 125.015 34.0283C125.129 34.047 125.246 34.047 125.36 34.0283C125.772 33.9496 126.001 34.1588 126.228 34.4882C128.271 37.4536 130.322 40.412 132.383 43.3636C132.412 43.403 132.443 43.4402 132.478 43.4838C132.537 43.432 132.515 43.3698 132.515 43.3201C132.527 40.747 132.539 38.1739 132.55 35.6008C132.55 35.1533 132.55 34.7078 132.55 34.2604C132.55 34.0677 132.61 34.02 132.789 34.0283C133.128 34.0407 133.468 34.0449 133.804 34.0283C134.011 34.018 134.048 34.0925 134.048 34.2811C134.048 36.629 134.048 38.9715 134.048 41.3084C134.048 43.0218 134.048 44.7351 134.048 46.4484C134.048 46.6556 133.986 46.7364 133.784 46.7032C133.751 46.6981 133.717 46.6981 133.685 46.7032C133.066 46.8296 132.725 46.5271 132.383 46.0237C130.41 43.1233 128.399 40.2663 126.4 37.3928C126.371 37.3555 126.36 37.2913 126.29 37.2913Z" fill="#ADAFAA"/>
<path d="M30.939 37.2478V46.4339C30.939 46.7488 30.939 46.7488 30.6171 46.7488C30.2953 46.7488 29.9404 46.7488 29.6021 46.7488C29.4618 46.7488 29.3958 46.7032 29.4184 46.5623C29.4205 46.5292 29.4205 46.496 29.4184 46.4629C29.4184 42.4244 29.4184 38.3865 29.4184 34.3494C29.4184 34.1298 29.4824 34.0987 29.6908 34.0656C30.3654 33.9578 30.743 34.25 31.1185 34.8052C33.0764 37.687 35.0838 40.5356 37.0727 43.3967C37.1077 43.4464 37.1243 43.521 37.2295 43.5293V43.2641C37.2295 40.3015 37.2295 37.3389 37.2295 34.3763C37.2295 34.1112 37.3099 34.0552 37.5493 34.0718C37.837 34.0925 38.1259 34.0925 38.4137 34.0718C38.6572 34.0552 38.7356 34.1174 38.7335 34.3805C38.7191 36.4398 38.7232 38.5012 38.7211 40.5605C38.7211 42.5224 38.7211 44.4844 38.7211 46.4442C38.7211 46.6721 38.6716 46.7239 38.4323 46.7591C37.7721 46.8586 37.4131 46.5706 37.05 46.034C35.1086 43.1812 33.13 40.3595 31.1494 37.5254C31.0958 37.4487 31.0359 37.3741 30.939 37.2478Z" fill="#ADAFAA"/>
<path d="M157.413 43.4815V43.2184C157.413 40.2558 157.413 37.2932 157.413 34.3285C157.413 34.0903 157.469 34.0115 157.712 34.0281C158.042 34.0447 158.371 34.0447 158.701 34.0281C158.88 34.0281 158.944 34.0654 158.944 34.2581C158.944 36.3029 158.969 38.3477 158.93 40.3925C158.893 42.3938 158.93 44.3972 158.909 46.4006C158.909 46.6285 158.855 46.6782 158.62 46.7175C157.954 46.8232 157.599 46.5104 157.238 45.9862C155.266 43.0858 153.252 40.2288 151.255 37.3533C151.228 37.316 151.199 37.2808 151.16 37.2331C151.126 37.3221 151.116 37.4186 151.131 37.5128C151.131 40.4837 151.131 43.4532 151.131 46.4213C151.131 46.6285 151.094 46.7175 150.863 46.703C150.518 46.6803 150.17 46.6927 149.831 46.703C149.697 46.703 149.625 46.6658 149.644 46.5207C149.647 46.48 149.647 46.4392 149.644 46.3985C149.644 42.3752 149.644 38.3525 149.644 34.3306C149.644 34.0965 149.701 34.0488 149.936 34.0198C150.555 33.9452 150.916 34.169 151.273 34.6973C153.089 37.3781 154.956 40.0237 156.805 42.6797L157.368 43.4918L157.413 43.4815Z" fill="#ADAFAA"/>
<path d="M63.8017 46.5393C63.5665 45.8162 63.352 45.089 63.1085 44.3681C62.7227 43.2307 62.2833 42.114 61.6107 41.1134C61.425 40.8399 61.4209 40.844 61.7076 40.699C62.4003 40.3468 62.9546 39.7704 63.281 39.063C63.6074 38.3556 63.6869 37.5584 63.5067 36.8C63.156 35.3705 61.6272 34.1274 60.1397 34.0922C59.2174 34.0715 58.2932 34.0922 57.3689 34.0922C56.4446 34.0922 55.5224 34.0922 54.5981 34.0922C54.3608 34.0922 54.3093 34.1709 54.3093 34.3905C54.3093 35.4824 54.3093 36.5762 54.3093 37.668C54.3093 40.5975 54.3093 43.529 54.2969 46.4585C54.2969 46.7195 54.3753 46.7796 54.6146 46.763C54.9113 46.7402 55.2092 46.7402 55.5059 46.763C55.7534 46.7816 55.8009 46.6884 55.7988 46.4564C55.7988 44.7845 55.7988 43.1126 55.7988 41.4407C55.7988 41.2874 55.7988 41.1776 56.0051 41.1797C57.1357 41.19 58.2643 41.1797 59.3949 41.1797C59.5018 41.1795 59.6046 41.2211 59.6816 41.2957C60.2898 41.8338 60.77 42.5021 61.0866 43.2514C61.5434 44.3229 61.9233 45.4258 62.2234 46.5517C62.2264 46.5836 62.2359 46.6146 62.2513 46.6427C62.2668 46.6708 62.2879 46.6953 62.3133 46.7148C62.3387 46.7343 62.3679 46.7482 62.3989 46.7558C62.43 46.7634 62.4622 46.7644 62.4937 46.7589C62.8816 46.7589 63.2694 46.7464 63.6573 46.7589C63.8492 46.7589 63.8492 46.6905 63.8017 46.5393ZM59.791 39.6528C59.4114 39.6528 59.0338 39.6528 58.6542 39.6528C57.7815 39.6652 56.9088 39.6735 56.0382 39.6963C55.8318 39.6963 55.7885 39.6403 55.7906 39.4456C55.7988 38.2398 55.7988 37.0327 55.7906 35.8242C55.7906 35.6357 55.8298 35.5652 56.034 35.5714C56.6777 35.5839 57.3194 35.5714 57.9631 35.5714C58.6068 35.5714 59.2319 35.5714 59.8673 35.5714C60.3322 35.5648 60.7875 35.7037 61.1701 35.9688C61.5528 36.2339 61.8438 36.612 62.0027 37.0507C62.1289 37.4202 62.1341 37.8206 62.0175 38.1933C61.901 38.5661 61.6688 38.8916 61.3549 39.1224C60.908 39.4711 60.3569 39.658 59.791 39.6528Z" fill="#ADAFAA"/>
<path d="M74.1984 39.6509H76.7463C76.866 39.6509 76.9671 39.6364 76.9733 39.8207C77.0104 41.1964 76.8433 42.5306 76.148 43.7446C75.3331 45.1555 74.2252 46.2307 72.5933 46.6119C71.8186 46.8091 71.0079 46.815 70.2304 46.6292C69.4529 46.4434 68.7318 46.0714 68.1286 45.545C67.4826 45.026 66.9484 44.3807 66.5582 43.6481C66.1681 42.9156 65.9303 42.111 65.8592 41.2834C65.6322 39.0604 66.2223 37.0964 67.8584 35.5094C68.5912 34.8029 69.5156 34.3295 70.5154 34.1486C71.5152 33.9676 72.5459 34.0871 73.4783 34.4922C74.5305 34.948 75.4301 35.5861 76.0366 36.5909C76.1439 36.767 76.1398 36.8519 75.9397 36.9389C75.6302 37.0736 75.3207 37.229 75.0319 37.3927C74.873 37.4797 74.7864 37.4672 74.675 37.3036C74.3275 36.7612 73.8467 36.3179 73.279 36.0163C72.7113 35.7148 72.0758 35.5652 71.4338 35.5819C70.0845 35.5819 69.0612 36.2366 68.2792 37.2953C67.4416 38.4306 67.2105 39.7234 67.3611 41.1031C67.4738 42.2668 67.9927 43.3529 68.826 44.1693C69.4722 44.8208 70.3385 45.2048 71.2533 45.245C72.1681 45.2853 73.0646 44.979 73.7651 44.3869C74.6089 43.6866 75.2093 42.8372 75.4156 41.735C75.5167 41.2026 75.5023 41.1777 74.9659 41.1777C73.8786 41.1777 72.7893 41.1777 71.6999 41.1777C71.4936 41.1777 71.4049 41.1404 71.4173 40.9084C71.4379 40.5624 71.4317 40.2123 71.4173 39.8725C71.4173 39.6923 71.4771 39.6488 71.6442 39.6509C72.5004 39.655 73.3484 39.6509 74.1984 39.6509Z" fill="#ADAFAA"/>
<path d="M42.4297 40.4153C42.4297 38.3975 42.4297 36.3775 42.4297 34.3576C42.4297 34.1235 42.4978 34.0737 42.7185 34.0737C45.4996 34.082 48.2794 34.082 51.0577 34.0737C51.3012 34.0737 51.3713 34.14 51.3548 34.3762C51.3352 34.6901 51.3352 35.0049 51.3548 35.3188C51.3672 35.526 51.2888 35.5778 51.0887 35.5778C48.8385 35.5778 46.5869 35.5778 44.334 35.5778C43.9213 35.5778 43.9213 35.5778 43.9213 35.9797C43.9213 37.113 43.9213 38.2462 43.9213 39.3815C43.9213 39.5887 43.9708 39.6612 44.1937 39.6591C45.8256 39.6591 47.4596 39.6591 49.0936 39.6591C49.3102 39.6591 49.3804 39.713 49.368 39.9347C49.3515 40.2653 49.3515 40.5965 49.368 40.9271C49.368 41.1342 49.302 41.1943 49.0998 41.1943C47.4844 41.1943 45.8669 41.1943 44.2514 41.1943C43.9296 41.1943 43.9296 41.1943 43.9296 41.5134C43.9296 42.6818 43.9296 43.8482 43.9296 45.0146C43.9296 45.2218 43.9874 45.2777 44.1916 45.2777C46.4693 45.2694 48.7463 45.2694 51.0226 45.2777C51.4023 45.2777 51.3569 45.2363 51.3589 45.6278C51.3589 45.9075 51.3383 46.1914 51.3589 46.471C51.3796 46.7507 51.2764 46.7777 51.0412 46.7756C48.8625 46.7756 46.6859 46.7756 44.5073 46.7756C43.9069 46.7756 43.3045 46.7632 42.702 46.7756C42.473 46.7756 42.4338 46.7031 42.4338 46.4938C42.4318 44.4552 42.4297 42.4353 42.4297 40.4153Z" fill="#ADAFAA"/>
<path d="M161.516 40.5933C161.497 38.5361 162.1 36.9491 163.373 35.6336C164.468 34.5045 165.803 33.9161 167.373 34.0487C169.183 34.202 170.658 34.9996 171.683 36.5493C171.803 36.7316 171.795 36.8186 171.584 36.9077C171.267 37.0465 170.957 37.2014 170.656 37.3718C170.507 37.4526 170.449 37.4298 170.352 37.2868C170.038 36.7982 169.615 36.3891 169.118 36.0915C168.62 35.794 168.06 35.616 167.483 35.5714C165.721 35.4098 164.508 36.2738 163.66 37.7343C163.13 38.6953 162.914 39.7987 163.041 40.8896C163.122 42.0896 163.626 43.2214 164.462 44.0822C164.843 44.5047 165.322 44.8251 165.857 45.0139C166.392 45.2028 166.966 45.2543 167.526 45.1636C168.747 44.9854 169.756 44.4406 170.445 43.3798C170.517 43.2659 170.575 43.2908 170.652 43.3405C170.98 43.5311 171.308 43.7258 171.64 43.9061C171.793 43.9869 171.817 44.0552 171.714 44.2065C171.051 45.1751 170.111 45.9191 169.018 46.3404C167.977 46.7618 166.827 46.8308 165.744 46.537C164.66 46.2431 163.702 45.6023 163.014 44.712C161.962 43.3902 161.514 42.1036 161.516 40.5933Z" fill="#ADAFAA"/>
<path d="M141.841 36.7008C141.561 37.343 141.296 37.9438 141.034 38.5509L138.387 44.6957C138.14 45.2716 137.884 45.8455 137.645 46.4256C137.623 46.5157 137.569 46.5947 137.493 46.6471C137.417 46.6995 137.324 46.7217 137.232 46.7094C136.797 46.6845 136.359 46.7094 135.883 46.7094C136.077 46.2495 136.258 45.8185 136.444 45.3876C137.381 43.2095 138.319 41.0328 139.26 38.8575C139.929 37.312 140.598 35.7658 141.268 34.2189C141.283 34.1593 141.32 34.1077 141.371 34.0739C141.422 34.0402 141.484 34.0269 141.544 34.0365C141.806 34.0593 142.124 33.9412 142.316 34.0842C142.508 34.2271 142.551 34.5234 142.654 34.7575L147.37 45.6756C147.49 45.9574 147.603 46.2412 147.727 46.5209C147.791 46.6638 147.756 46.7135 147.601 46.7115C147.189 46.7115 146.76 46.7011 146.339 46.7115C146.174 46.7115 146.132 46.6141 146.079 46.5043C145.666 45.5582 145.254 44.6107 144.841 43.6619C143.906 41.4865 142.968 39.3147 142.029 37.1462C141.977 37.0095 141.917 36.8769 141.841 36.7008Z" fill="#ADAFAA"/>
<path d="M110.288 40.341C110.288 38.3293 110.288 36.3176 110.288 34.308C110.288 34.1009 110.331 34.0263 110.556 34.0284C112.981 34.0366 115.406 34.0366 117.831 34.0284C118.07 34.0284 118.124 34.1029 118.111 34.3225C118.095 34.6283 118.095 34.9346 118.111 35.2403C118.124 35.462 118.064 35.5345 117.829 35.5345C115.914 35.5242 114.002 35.5345 112.087 35.5221C111.839 35.5221 111.771 35.5822 111.775 35.8349C111.79 37.0096 111.775 38.1843 111.775 39.3569C111.775 39.5516 111.829 39.6076 112.023 39.6055C113.376 39.6055 114.73 39.6055 116.081 39.6055C116.288 39.6055 116.351 39.6676 116.341 39.8707C116.326 40.2104 116.326 40.5502 116.341 40.89C116.341 41.0847 116.292 41.1407 116.094 41.1407C114.748 41.1407 113.412 41.1407 112.06 41.1303C111.833 41.1303 111.773 41.1904 111.773 41.4183C111.773 43.0985 111.773 44.7786 111.773 46.4588C111.773 46.6474 111.734 46.724 111.53 46.7116C111.208 46.695 110.886 46.695 110.564 46.7116C110.342 46.724 110.271 46.6619 110.273 46.4278C110.273 44.7559 110.273 43.084 110.273 41.4121L110.288 40.341Z" fill="#ADAFAA"/>
<path d="M78.1953 34.0798C78.7854 34.0798 79.328 34.0798 79.8706 34.0798C80.0129 34.0798 80.048 34.1896 80.1016 34.2745L82.7425 38.418C82.858 38.5962 82.9756 38.907 83.1056 38.9132C83.2851 38.9235 83.3593 38.6148 83.4687 38.4387C84.3393 37.0576 85.2052 35.6695 86.0662 34.2745C86.0965 34.2125 86.1449 34.1612 86.205 34.1275C86.2651 34.0939 86.334 34.0794 86.4025 34.086C86.8295 34.0964 87.2587 34.086 87.6878 34.086C87.7579 34.086 87.8528 34.0466 87.8941 34.1254C87.9354 34.2041 87.8508 34.26 87.8116 34.3201C86.7635 36.0024 85.7134 37.6839 84.6612 39.3648C84.426 39.7419 84.1928 40.1231 83.9515 40.4981C83.8866 40.6036 83.8557 40.7265 83.8627 40.8503C83.8627 42.7273 83.8627 44.6063 83.8627 46.4854C83.8627 46.7071 83.805 46.7713 83.5863 46.7589C83.2571 46.7423 82.9272 46.7423 82.598 46.7589C82.4082 46.7589 82.3628 46.705 82.3628 46.5206C82.3628 44.656 82.3628 42.7791 82.3628 40.9083C82.3668 40.7619 82.3273 40.6177 82.2494 40.4939C80.9386 38.4415 79.6319 36.3856 78.3294 34.3263C78.2964 34.2538 78.2613 34.1834 78.1953 34.0798Z" fill="#ADAFAA"/>
<path d="M120.039 40.3534C120.039 38.3335 120.039 36.3156 120.039 34.2956C120.039 34.0885 120.08 34.016 120.295 34.0284C120.608 34.0481 120.922 34.0481 121.236 34.0284C121.469 34.0139 121.543 34.074 121.541 34.3226C121.525 35.3584 121.541 36.3943 121.541 37.4302C121.541 40.428 121.541 43.4237 121.541 46.4195C121.541 46.637 121.498 46.7302 121.258 46.7137C120.946 46.694 120.632 46.694 120.32 46.7137C120.113 46.7261 120.037 46.6702 120.041 46.4443C120.054 45.4996 120.041 44.557 120.041 43.6123L120.039 40.3534Z" fill="#ADAFAA"/>
<path d="M16.4827 34.0304C16.4294 32.9617 16.1338 31.9193 15.6182 30.9828C15.5993 30.938 15.5663 30.9005 15.5242 30.8762C15.4821 30.8519 15.4333 30.8421 15.3851 30.8482C14.5802 30.8664 13.7757 30.7969 12.9857 30.641C11.459 30.3551 10.0973 29.7522 9.06573 28.5299C8.53838 27.8633 8.15224 27.0956 7.931 26.2738C7.6603 25.3252 7.52145 24.3435 7.51838 23.3568C7.50808 22.8209 7.52668 22.285 7.57408 21.7512C7.59884 21.5025 7.73088 21.4798 7.91037 21.4694C8.61435 21.4221 9.32053 21.4173 10.0251 21.4549C10.9267 21.5084 11.8178 21.6783 12.6762 21.9604C13.6417 22.2639 14.5096 22.8194 15.1912 23.5701C15.7708 24.2459 16.198 25.0396 16.4435 25.8967C16.7767 26.9921 16.9273 28.1352 16.8891 29.2799C16.8814 29.3452 16.8899 29.4114 16.9139 29.4725C17.0686 29.7688 17.2316 30.0609 17.407 30.382C17.6587 29.9946 17.8547 29.6072 18.1064 29.255C18.5266 28.6465 19.0262 28.0975 19.5918 27.6225C19.6652 27.5719 19.7244 27.5032 19.7638 27.423C19.8032 27.3429 19.8214 27.2539 19.8167 27.1646C19.7837 26.4882 19.8002 25.8103 19.8662 25.1364C20.0725 23.3008 20.512 21.5419 21.6777 20.0482C22.5401 18.9439 23.683 18.2499 24.9787 17.7962C26.5817 17.2389 28.2426 17.0959 29.9302 17.1519C30.3139 17.1643 30.6977 17.2203 31.0814 17.241C31.2197 17.241 31.2362 17.3156 31.2465 17.4274C31.3245 18.1414 31.3541 18.8599 31.3352 19.5779C31.2754 21.2146 31.0422 22.816 30.3531 24.3222C30.0544 24.9721 29.6593 25.5728 29.1813 26.1039C28.193 27.2164 26.9242 27.8338 25.5295 28.2336C24.5954 28.4879 23.6367 28.6407 22.67 28.6894C22.2161 28.7184 21.7664 28.7019 21.3146 28.7205C21.226 28.7237 21.1411 28.7565 21.0732 28.8137C20.2725 29.4388 19.6133 30.2278 19.1395 31.1283C18.6657 32.0287 18.3881 33.0201 18.3251 34.0366L16.4827 34.0304Z" fill="#93C35E"/>
</g>
<defs>
<clipPath id="clip0_1507_1871">
<rect width="183" height="54" fill="white" transform="translate(0.5)"/>
</clipPath>
</defs>
</svg>
